# xmcd
#
# Track frame offsets: 
#        150
#        17722
#        34467
#        48542
#        74635
#        95015
#        110065
#        124770
#        137392
#        150550
#        162887
#        176950
#        191822
#
# Disc length: 2724 seconds
#
# Revision: 3
# Processed by: cddbd v1.5.2PL0 Copyright (c) Steve Scherf et al.
# Submitted via: ExactAudioCopy v1.0b3
#
DISCID=bf0aa20d
DTITLE=Moraes Moreira - O Brasil Tem Concerto
DYEAR=1994
DGENRE=Latin-Br-Frevo
TTITLE0=Verdade
TTITLE1=Meu Namoro
TTITLE2=Estações
TTITLE3=Povo Nordestino - Foi Cantar Pra Deus - Deusa Mulher - Cariribe - 
TTITLE3=Baile No Meu Coração
TTITLE4=Quase Impossível
TTITLE5=Chorar É Preciso
TTITLE6=Isto Aqui O Que É
TTITLE7=José Assis Valente
TTITLE8=Viver Por Um Fio
TTITLE9=Em Nome Dos Deuses
TTITLE10=Felicidade Eu Não Sei
TTITLE11=Ser Artista
TTITLE12=Dagmar
EXTD=YEAR: 1994
EXTT0=
EXTT1=
EXTT2=
EXTT3=Povo Nordestino\nFoi Cantar Pr  Deus\nDeusa Mulher\nCariribe\nBa
EXTT3=ile No Meu Cora  o\n
EXTT4=
EXTT5=
EXTT6=
EXTT7=
EXTT8=
EXTT9=
EXTT10=
EXTT11=
EXTT12=
PLAYORDER=
